<svg width="14" height="17" viewBox="0 0 14 17" fill="none" xmlns="http://www.w3.org/2000/svg">
<path d="M13.0729 5.52137C12.9799 5.59367 11.3481 6.51287 11.3481 8.55777C11.3481 10.9229 13.424 11.7595 13.486 11.7801C13.4757 11.8317 13.1555 12.9265 12.3912 14.0419C11.7096 15.0231 10.9969 16.0042 9.9125 16.0042C8.8281 16.0042 8.5492 15.3742 7.2995 15.3742C6.0808 15.3742 5.647 16.0249 4.6555 16.0249C3.664 16.0249 2.972 15.116 2.1768 14.0006C1.2576 12.6889 0.514 10.6543 0.514 8.72297C0.514 5.62457 2.528 3.98237 4.5109 3.98237C5.5644 3.98237 6.4422 4.67437 7.1032 4.67437C7.7332 4.67437 8.7144 3.94107 9.9124 3.94107C10.3669 3.94117 11.9988 3.98257 13.0729 5.52137ZM9.3445 2.62957C9.8402 2.04087 10.1914 1.22497 10.1914 0.409067C10.1914 0.295467 10.1811 0.181867 10.1604 0.0888672C9.3548 0.119867 8.3943 0.625968 7.8159 1.29727C7.3615 1.81367 6.938 2.62957 6.938 3.45587C6.938 3.57977 6.9587 3.70377 6.969 3.74507C7.0206 3.75537 7.1033 3.76577 7.1859 3.76577C7.9089 3.76567 8.8177 3.28027 9.3445 2.62957Z" fill="white"/>
</svg>
